<svg xmlns="http://www.w3.org/2000/svg"  viewBox="0 0 64 64" width="64px" height="64px"><path d="M 31.984375 4 A 1.0001 1.0001 0 0 0 31.292969 4.2929688 L 26.808594 8.7773438 C 24.744815 10.841122 21.947557 12 19.029297 12 L 13 12 A 1.0001 1.0001 0 0 0 12 13 L 12 19.029297 C 12 21.947557 10.840939 24.743963 8.7773438 26.806641 L 4.2929688 31.292969 A 1.0001 1.0001 0 0 0 4.2929688 32.707031 L 8.7773438 37.191406 C 10.840039 39.254102 12 42.053736 12 44.970703 L 12 51 A 1.0001 1.0001 0 0 0 13 52 L 19.029297 52 C 21.947557 52 24.743963 53.159061 26.806641 55.222656 L 31.292969 59.707031 A 1.0001 1.0001 0 0 0 32.707031 59.707031 L 37.191406 55.222656 C 39.254102 53.159961 42.053736 52 44.970703 52 L 51 52 A 1.0001 1.0001 0 0 0 52 51 L 52 44.970703 C 52 42.052443 53.159061 39.256037 55.222656 37.193359 L 59.707031 32.707031 A 1.0001 1.0001 0 0 0 59 31 L 47 31 A 1.0001 1.0001 0 0 0 46 32 C 46 39.963223 39.388849 46.354835 31.337891 45.984375 C 24.221684 45.657354 18.342646 39.780269 18.015625 32.664062 A 1.0001 1.0001 0 0 0 18.015625 32.662109 C 17.644226 24.610185 24.036777 18 32 18 C 38.446077 18 43.859908 22.345529 45.496094 28.257812 A 1.0001 1.0001 0 1 0 47.421875 27.724609 C 45.550061 20.960893 39.345923 16 32 16 C 22.925223 16 15.594977 23.59383 16.017578 32.755859 C 16.392557 40.915652 23.086301 47.607443 31.246094 47.982422 C 40.061041 48.388036 47.352727 41.596821 47.896484 33 L 56.585938 33 L 53.808594 35.779297 C 51.370189 38.216619 50 41.522963 50 44.970703 L 50 50 L 44.970703 50 C 41.523671 50 38.214648 51.371289 35.777344 53.808594 L 32 57.585938 L 28.220703 53.808594 C 25.783381 51.370189 22.477037 50 19.029297 50 L 14 50 L 14 44.970703 C 14 41.523671 12.628711 38.214648 10.191406 35.777344 L 6.4140625 32 L 10.191406 28.220703 C 12.629811 25.783381 14 22.477037 14 19.029297 L 14 14 L 19.029297 14 C 22.477037 14 25.784435 12.629628 28.222656 10.191406 L 32 6.4140625 L 35.779297 10.191406 C 38.216619 12.629811 41.522963 14 44.970703 14 L 50 14 L 50 19.029297 C 50 22.477037 51.370372 25.784435 53.808594 28.222656 L 54.292969 28.707031 A 1.0001 1.0001 0 1 0 55.707031 27.292969 L 55.222656 26.808594 C 53.158878 24.744815 52 21.947557 52 19.029297 L 52 13 A 1.0001 1.0001 0 0 0 51 12 L 44.970703 12 C 42.052443 12 39.256037 10.840939 37.193359 8.7773438 L 32.707031 4.2929688 A 1.0001 1.0001 0 0 0 31.984375 4 z"/></svg>