<?xml version="1.0" encoding="UTF-8"?>
<!DOCTYPE svg PUBLIC "-//W3C//DTD SVG 1.1//EN" "http://www.w3.org/Graphics/SVG/1.1/DTD/svg11.dtd">
<svg xmlns="http://www.w3.org/2000/svg" version="1.1" width="48px" height="48px" style="shape-rendering:geometricPrecision; text-rendering:geometricPrecision; image-rendering:optimizeQuality; fill-rule:evenodd; clip-rule:evenodd" xmlns:xlink="http://www.w3.org/1999/xlink">
<g><path style="opacity:0.877" fill="#000000" d="M 16.5,2.5 C 36.9814,0.814181 46.1481,10.1475 44,30.5C 36.4419,45.0723 25.2752,48.5723 10.5,41C 1.62627,32.0024 0.12627,21.8357 6,10.5C 8.93997,6.96319 12.44,4.29652 16.5,2.5 Z M 34.5,10.5 C 40.0164,15.2242 41.8497,21.2242 40,28.5C 35.9427,38.7579 28.4427,42.5912 17.5,40C 14.7339,38.629 12.4006,36.7957 10.5,34.5C 19.5773,38.367 27.4106,36.7004 34,29.5C 37.158,23.2451 37.3246,16.9118 34.5,10.5 Z"/></g>
</svg>
